HIERARCHY
ROOT Hips
{
 OFFSET 0.000000 0.000000 0.000000
 CHANNELS 6 Xposition Yposition Zposition Yrotation Xrotation Zrotation
 JOINT Chest
 {
  OFFSET 0.000000 11.395451 -0.039534
  CHANNELS 3 Yrotation Xrotation Zrotation
  JOINT Chest2
  {
   OFFSET 0.000000 9.398669 0.071813
   CHANNELS 3 Yrotation Xrotation Zrotation
   JOINT Chest3
   {
    OFFSET 0.000000 8.489801 0.000000
    CHANNELS 3 Yrotation Xrotation Zrotation
    JOINT Chest4
    {
     OFFSET 0.000000 8.489801 0.000000
     CHANNELS 3 Yrotation Xrotation Zrotation
     JOINT Neck
     {
      OFFSET 0.000000 12.404889 0.000000
      CHANNELS 3 Yrotation Xrotation Zrotation
      JOINT Head
      {
       OFFSET 0.000000 8.903270 0.092239
       CHANNELS 3 Yrotation Xrotation Zrotation
       End Site
       {
        OFFSET 0.000000 17.592497 0.007158
       }
      }
     }
     JOINT RightCollar
     {
      OFFSET -3.196775 6.966722 0.000000
      CHANNELS 3 Yrotation Xrotation Zrotation
      JOINT RightShoulder
      {
       OFFSET -15.955896 0.000000 0.000000
       CHANNELS 3 Yrotation Xrotation Zrotation
       JOINT RightElbow
       {
        OFFSET -24.792472 0.000000 0.000000
        CHANNELS 3 Yrotation Xrotation Zrotation
        JOINT RightWrist
        {
         OFFSET -20.900115 0.000000 0.025002
         CHANNELS 3 Yrotation Xrotation Zrotation
         End Site
         {
          OFFSET -16.056692 0.000000 0.000000
         }
        }
       }
      }
     }
     JOINT LeftCollar
     {
      OFFSET 3.196775 6.966722 0.000000
      CHANNELS 3 Yrotation Xrotation Zrotation
      JOINT LeftShoulder
      {
       OFFSET 15.955896 0.000000 0.000000
       CHANNELS 3 Yrotation Xrotation Zrotation
       JOINT LeftElbow
       {
        OFFSET 24.792472 0.000000 0.000000
        CHANNELS 3 Yrotation Xrotation Zrotation
        JOINT LeftWrist
        {
         OFFSET 20.900115 0.000000 0.025002
         CHANNELS 3 Yrotation Xrotation Zrotation
         End Site
         {
          OFFSET 16.056692 0.000000 0.000000
         }
        }
       }
      }
     }
    }
   }
  }
 }
 JOINT RightHip
 {
  OFFSET -9.568995 0.193718 0.019767
  CHANNELS 3 Yrotation Xrotation Zrotation
  JOINT RightKnee
  {
   OFFSET 0.000000 -56.649296 0.015402
   CHANNELS 3 Yrotation Xrotation Zrotation
   JOINT RightAnkle
   {
    OFFSET 0.000000 -41.365147 0.021264
    CHANNELS 3 Yrotation Xrotation Zrotation
    JOINT RightToe
    {
     OFFSET 0.000000 -7.465940 17.672538
     CHANNELS 3 Yrotation Xrotation Zrotation
     End Site
     {
      OFFSET 0.000000 -1.736315 7.837145
     }
    }
   }
  }
 }
 JOINT LeftHip
 {
  OFFSET 9.568995 0.193718 0.019767
  CHANNELS 3 Yrotation Xrotation Zrotation
  JOINT LeftKnee
  {
   OFFSET 0.000000 -56.649296 0.015402
   CHANNELS 3 Yrotation Xrotation Zrotation
   JOINT LeftAnkle
   {
    OFFSET 0.000000 -41.365147 0.021264
    CHANNELS 3 Yrotation Xrotation Zrotation
    JOINT LeftToe
    {
     OFFSET 0.000000 -7.465940 17.672538
     CHANNELS 3 Yrotation Xrotation Zrotation
     End Site
     {
      OFFSET 0.000000 -1.736315 7.837145
     }
    }
   }
  }
 }
}
MOTION
Frames: 11
Frame Time: 0.016667
-280.607609 106.873817 382.384769 -125.265289 -7.950287 -0.261728 -1.786803 5.034171 1.099268 -0.805280 2.233168 0.507476 -0.805280 2.233168 0.507476 -0.605739 1.674212 0.383504 1.506935 15.538375 -1.333068 3.307395 -7.271332 -3.047203 -0.161014 8.045590 6.644751 14.092781 -12.509886 74.334239 1.647822 -6.317272 -0.897230 -3.104062 -0.112013 3.381877 -4.836354 8.435764 -8.288939 -1.570174 -16.388095 -76.463894 -3.515602 -2.574800 -2.047845 4.616633 -0.807659 -3.896298 2.519209 8.083598 1.458281 -1.099002 5.986475 -0.076325 -1.134165 -8.369600 -2.119923 0.000000 0.000000 0.000000 4.982080 10.493211 1.342129 -1.383970 7.350333 0.102817 3.822970 -8.386749 0.296329 0.016336 -1.432157 -1.388826
-280.592207 106.852900 382.400798 -125.276955 -7.905293 -0.217163 -1.774116 5.018707 1.077115 -0.799375 2.226410 0.497446 -0.799375 2.226410 0.497446 -0.601269 1.669162 0.375952 1.515585 15.532573 -1.315967 3.317433 -7.282451 -3.018708 -0.164825 7.994329 6.656556 14.045109 -12.485513 74.495489 1.633673 -6.788811 -0.908087 -3.145606 -0.175707 3.323586 -4.771101 8.404159 -8.280083 -1.605546 -16.242437 -76.446510 -3.638192 -3.151242 -2.172192 4.484442 -0.966464 -4.121524 2.541803 8.037702 1.451221 -1.186731 5.971746 -0.187538 -1.084087 -8.372866 -2.050478 0.000000 0.000000 0.000000 4.995032 10.446622 1.303929 -1.465582 7.370850 0.028749 3.875082 -8.503662 0.333182 0.012673 -1.240621 -1.367089
-280.576804 106.831982 382.416827 -125.288584 -7.860289 -0.172612 -1.761431 5.003254 1.054950 -0.793473 2.219655 0.487412 -0.793473 2.219655 0.487412 -0.596802 1.664113 0.368397 1.524235 15.526762 -1.298870 3.327470 -7.293588 -2.990221 -0.168657 7.943065 6.668345 13.997421 -12.461061 74.656704 1.620797 -7.260390 -0.918877 -3.186404 -0.239593 3.265023 -4.705867 8.372527 -8.271289 -1.640870 -16.096783 -76.429037 -3.759319 -3.727721 -2.296649 4.354766 -1.125516 -4.347705 2.564429 7.991826 1.444134 -1.274416 5.956834 -0.298731 -1.034042 -8.376184 -1.981014 0.000000 -0.000000 0.000000 5.008024 10.400050 1.265719 -1.547222 7.391266 -0.045354 3.927012 -8.620620 0.370064 0.009118 -1.049079 -1.345400
-280.564859 106.814646 382.430503 -125.295685 -7.816300 -0.136187 -1.748550 4.986851 1.038209 -0.787541 2.212458 0.479780 -0.787541 2.212458 0.479780 -0.592320 1.658730 0.362644 1.532314 15.524103 -1.282661 3.336650 -7.298860 -2.963058 -0.169108 7.894773 6.678511 13.965989 -12.435033 74.806257 1.585125 -7.535817 -0.951407 -3.212041 -0.269391 3.196059 -4.645286 8.340237 -8.265750 -1.668821 -15.960957 -76.415216 -3.868552 -4.149166 -2.398298 4.228397 -1.259608 -4.513762 2.580979 7.950310 1.439988 -1.350010 5.936715 -0.395378 -0.992080 -8.373896 -1.919406 0.000000 0.000000 0.000000 5.018008 10.354644 1.236730 -1.622598 7.407439 -0.110053 3.977484 -8.720145 0.400093 0.006109 -0.882417 -1.327498
-280.558437 106.802842 382.440822 -125.296264 -7.773659 -0.112432 -1.735149 4.968563 1.029722 -0.781465 2.204392 0.475803 -0.781465 2.204392 0.475803 -0.587744 1.652690 0.359629 1.539948 15.527194 -1.267202 3.345063 -7.293446 -2.936913 -0.163885 7.850530 6.686599 13.961975 -12.405843 74.939535 1.506135 -7.489494 -1.023849 -3.213520 -0.243261 3.106651 -4.590759 8.306084 -8.264768 -1.681501 -15.837104 -76.408362 -3.966855 -4.334409 -2.469453 4.095672 -1.364305 -4.582283 2.586211 7.915818 1.440529 -1.405802 5.907231 -0.470188 -0.961007 -8.362428 -1.869973 -0.000000 -0.000000 -0.000000 5.022749 10.310157 1.222528 -1.688832 7.418377 -0.160638 4.027769 -8.793925 0.419197 0.003803 -0.752362 -1.315509
-280.555472 106.794619 382.448788 -125.292340 -7.732042 -0.096788 -1.721549 4.949317 1.026654 -0.775356 2.195880 0.474227 -0.775356 2.195880 0.474227 -0.583151 1.646313 0.358414 1.547015 15.533437 -1.252621 3.352626 -7.282170 -2.912075 -0.155268 7.809256 6.693046 13.974217 -12.375286 75.061229 1.402065 -7.247385 -1.118284 -3.201220 -0.182995 3.006958 -4.540872 8.271304 -8.267031 -1.686870 -15.723076 -76.405100 -4.054644 -4.364613 -2.517754 3.963688 -1.443726 -4.589731 2.585344 7.885664 1.444035 -1.449506 5.872669 -0.530435 -0.937982 -8.345309 -1.828411 0.000000 0.000000 -0.000000 5.024457 10.266820 1.217552 -1.748781 7.425125 -0.201793 4.076745 -8.850246 0.431415 0.001958 -0.647193 -1.307257
-280.553227 106.787711 382.455065 -125.285443 -7.691487 -0.083704 -1.708515 4.930947 1.025942 -0.769526 2.187747 0.473707 -0.769526 2.187747 0.473707 -0.578771 1.640218 0.357993 1.552570 15.538203 -1.240200 3.358224 -7.273606 -2.890767 -0.146711 7.770692 6.697576 13.985510 -12.346953 75.173653 1.307368 -6.990506 -1.202113 -3.189638 -0.119653 2.917455 -4.496027 8.238942 -8.271803 -1.701372 -15.622255 -76.399195 -4.121151 -4.328185 -2.543192 3.857509 -1.485541 -4.585731 2.587955 7.856156 1.448266 -1.492225 5.840709 -0.583445 -0.922576 -8.327518 -1.789668 0.000000 -0.000000 0.000000 5.026749 10.226491 1.214337 -1.804758 7.426613 -0.238160 4.119589 -8.896524 0.442031 0.000390 -0.556623 -1.300022
-280.550809 106.781626 382.459718 -125.275920 -7.651391 -0.071420 -1.695278 4.914180 1.026894 -0.763626 2.180321 0.473931 -0.763626 2.180321 0.473931 -0.574342 1.634653 0.358131 1.555502 15.539923 -1.230561 3.360068 -7.270688 -2.873797 -0.138662 7.735145 6.699292 13.990660 -12.321443 75.276205 1.230271 -6.749771 -1.264285 -3.182823 -0.055183 2.846258 -4.456387 8.208934 -8.279352 -1.733098 -15.537802 -76.387645 -4.161054 -4.216077 -2.538303 3.790280 -1.471056 -4.581695 2.595097 7.825331 1.451666 -1.536187 5.814380 -0.630270 -0.914145 -8.310425 -1.752863 -0.000000 -0.000000 -0.000000 5.027596 10.189768 1.209599 -1.855321 7.421104 -0.270542 4.155879 -8.933146 0.451874 -0.000953 -0.488310 -1.340030
-280.549112 106.776855 382.462683 -125.263430 -7.612359 -0.061690 -1.682607 4.898284 1.030204 -0.758004 2.173272 0.475211 -0.758004 2.173272 0.475211 -0.570126 1.629369 0.359063 1.556921 15.540171 -1.223088 3.359943 -7.270472 -2.860364 -0.130662 7.702314 6.699093 13.994874 -12.298119 75.369470 1.162829 -6.494045 -1.315804 -3.176532 0.012451 2.785299 -4.421781 8.181359 -8.289398 -1.773926 -15.466555 -76.373584 -4.179736 -4.037324 -2.510393 3.748891 -1.419072 -4.566116 2.605711 7.795153 1.455772 -1.579187 5.790685 -0.669876 -0.913329 -8.292643 -1.718889 -0.000000 -0.000000 -0.000000 5.029019 10.156052 1.206618 -1.901899 7.410364 -0.298116 4.186055 -8.959716 0.460120 -0.002051 -0.434594 -1.381054
-280.548069 106.772598 382.464432 -125.248465 -7.576236 -0.054245 -1.673573 4.882902 1.034887 -0.754013 2.166439 0.477142 -0.754013 2.166439 0.477142 -0.567135 1.624245 0.360488 1.559213 15.539043 -1.217211 3.362087 -7.272713 -2.850286 -0.124810 7.671025 6.699416 13.996533 -12.278621 75.457496 1.116883 -6.310964 -1.356634 -3.171932 0.058247 2.731094 -4.392122 8.159466 -8.300357 -1.815965 -15.402417 -76.360046 -4.182335 -3.907440 -2.481603 3.719269 -1.373640 -4.554653 2.626207 7.767813 1.462952 -1.625674 5.768240 -0.706463 -0.921633 -8.275010 -1.685357 0.000000 0.000000 0.000000 5.040712 10.125415 1.207752 -1.951111 7.398566 -0.323095 4.206552 -8.982481 0.469585 -0.002874 -0.362220 -1.281703
-280.547459 106.768628 382.464795 -125.229834 -7.543753 -0.049987 -1.669808 4.867646 1.041079 -0.752376 2.159644 0.479799 -0.752376 2.159644 0.479799 -0.565912 1.619147 0.362467 1.563616 15.536823 -1.213133 3.368878 -7.276826 -2.844388 -0.122161 7.641474 6.701082 13.993925 -12.263115 75.542201 1.102033 -6.252606 -1.383554 -3.169955 0.065441 2.685726 -4.368528 8.145785 -8.312313 -1.858563 -15.345164 -76.346848 -4.166714 -3.882998 -2.459002 3.699169 -1.354087 -4.560904 2.662294 7.743882 1.475656 -1.679463 5.747013 -0.741574 -0.943453 -8.257328 -1.649728 0.000000 0.000000 0.000000 5.068873 10.097534 1.215403 -2.007643 7.387477 -0.345865 4.214239 -9.003495 0.482273 -0.002930 -0.240481 -0.900583
